HIERARCHY
ROOT Hips
{
 OFFSET 0.000000 0.000000 0.000000
 CHANNELS 6 Xposition Yposition Zposition Yrotation Xrotation Zrotation
 JOINT Chest
 {
  OFFSET 0.000000 9.585900 0.002600
  CHANNELS 3 Yrotation Xrotation Zrotation
  JOINT Chest2
  {
   OFFSET 0.000000 9.601200 -0.005300
   CHANNELS 3 Yrotation Xrotation Zrotation
   JOINT Chest3
   {
    OFFSET 0.000000 9.561800 0.000000
    CHANNELS 3 Yrotation Xrotation Zrotation
    JOINT Chest4
    {
     OFFSET 0.000000 9.552100 0.000000
     CHANNELS 3 Yrotation Xrotation Zrotation
     JOINT Neck
     {
      OFFSET 0.000000 14.453000 0.000000
      CHANNELS 3 Yrotation Xrotation Zrotation
      JOINT Head
      {
       OFFSET 0.000000 8.936500 -0.011300
       CHANNELS 3 Yrotation Xrotation Zrotation
       End Site
       {
        OFFSET 0.000000 17.073600 -0.006000
       }
      }
     }
     JOINT RightCollar
     {
      OFFSET -2.921100 9.558500 0.000000
      CHANNELS 3 Yrotation Xrotation Zrotation
      JOINT RightShoulder
      {
       OFFSET -13.519700 0.000000 0.000000
       CHANNELS 3 Yrotation Xrotation Zrotation
       JOINT RightElbow
       {
        OFFSET 0.000000 -29.696600 0.000000
        CHANNELS 3 Yrotation Xrotation Zrotation
        JOINT RightWrist
        {
         OFFSET 0.000000 -24.004700 0.000000
         CHANNELS 3 Yrotation Xrotation Zrotation
         End Site
         {
          OFFSET 0.000000 -17.728500 0.000000
         }
        }
       }
      }
     }
     JOINT LeftCollar
     {
      OFFSET 2.921100 9.558500 0.000000
      CHANNELS 3 Yrotation Xrotation Zrotation
      JOINT LeftShoulder
      {
       OFFSET 13.519700 0.000000 0.000000
       CHANNELS 3 Yrotation Xrotation Zrotation
       JOINT LeftElbow
       {
        OFFSET 0.000000 -29.696600 0.000000
        CHANNELS 3 Yrotation Xrotation Zrotation
        JOINT LeftWrist
        {
         OFFSET 0.000000 -24.004700 0.000000
         CHANNELS 3 Yrotation Xrotation Zrotation
         End Site
         {
          OFFSET 0.000000 -17.728500 0.000000
         }
        }
       }
      }
     }
    }
   }
  }
 }
 JOINT RightHip
 {
  OFFSET -7.771700 -0.012900 -0.001300
  CHANNELS 3 Yrotation Xrotation Zrotation
  JOINT RightKnee
  {
   OFFSET 0.000000 -40.869800 0.001200
   CHANNELS 3 Yrotation Xrotation Zrotation
   JOINT RightAnkle
   {
    OFFSET 0.000000 -39.717900 0.002100
    CHANNELS 3 Yrotation Xrotation Zrotation
    JOINT RightToe
    {
     OFFSET 0.000000 -4.965400 11.033500
     CHANNELS 3 Yrotation Xrotation Zrotation
     End Site
     {
      OFFSET 0.000000 -1.423100 5.872300
     }
    }
   }
  }
 }
 JOINT LeftHip
 {
  OFFSET 7.771700 -0.012900 -0.001300
  CHANNELS 3 Yrotation Xrotation Zrotation
  JOINT LeftKnee
  {
   OFFSET 0.000000 -40.869800 0.001200
   CHANNELS 3 Yrotation Xrotation Zrotation
   JOINT LeftAnkle
   {
    OFFSET 0.000000 -39.717900 0.002100
    CHANNELS 3 Yrotation Xrotation Zrotation
    JOINT LeftToe
    {
     OFFSET 0.000000 -4.965400 11.033500
     CHANNELS 3 Yrotation Xrotation Zrotation
     End Site
     {
      OFFSET 0.000000 -1.423100 5.872300
     }
    }
   }
  }
 }
}
MOTION
Frames: 5
Frame Time: 0.008333
-181.709047 49.137299 12.967832 174.401277 -32.222972 -4.077978 0.344032 20.185584 1.989059 0.070262 2.581492 0.176261 0.073195 4.233226 0.380198 0.600683 17.479520 1.417907 4.166049 14.776896 -3.623510 9.214709 -7.902321 -8.497749 0.317418 -4.296485 -2.325497 5.949942 -10.442509 -14.386292 -38.216896 -47.399515 88.039346 5.694754 7.960982 -10.163444 -0.963975 -2.833647 3.037336 -6.222564 -5.093890 13.309193 71.222133 -68.794601 -108.368860 2.478742 9.330771 4.869475 -7.224269 -51.752496 -3.737213 -164.212671 82.327309 -150.776616 -30.106849 -4.049097 -3.995414 -0.148739 -13.925527 -0.492148 -14.118050 -54.223253 21.753683 -74.062047 65.367608 -78.858985 30.706891 8.421445 15.257143 0.167569 -0.591444 0.110646
-181.716743 49.137712 12.969759 174.423747 -32.242374 -4.093441 0.304462 20.207089 2.027221 0.053460 2.584072 0.201587 0.079571 4.230885 0.352220 0.538825 17.483253 1.486423 4.189812 14.767805 -3.648704 9.220991 -7.925559 -8.429063 0.346476 -4.288363 -2.379674 5.958699 -10.447247 -14.392830 -38.202321 -47.348802 87.962613 5.698245 7.949734 -10.164981 -0.920935 -2.854299 2.926922 -6.284726 -5.111612 13.321822 71.217197 -68.838219 -108.330101 2.458400 9.454909 4.999875 -7.199419 -51.748183 -3.731411 -163.908471 82.293776 -150.497852 -30.093973 -4.041742 -3.987853 -0.161460 -13.905198 -0.453261 -14.092179 -54.209404 21.758406 -74.056716 65.330912 -78.853708 30.694685 8.422544 15.240019 0.188643 -0.575423 0.141296
-181.719939 49.138168 12.973057 174.433485 -32.253327 -4.118495 0.288984 20.216213 2.072566 0.061782 2.587048 0.181314 0.071187 4.229798 0.362188 0.502577 17.481394 1.521371 4.202377 14.757587 -3.610061 9.226556 -7.946560 -8.351819 0.339926 -4.275244 -2.368568 5.972066 -10.462106 -14.397443 -38.180010 -47.296182 87.871865 5.697395 7.943794 -10.165815 -0.910676 -2.868438 2.882334 -6.344177 -5.134444 13.337490 71.205356 -68.877912 -108.279265 2.459537 9.575076 5.125550 -7.125981 -51.750790 -3.718833 -163.492951 82.253599 -150.079911 -30.103029 -4.029366 -3.956609 -0.154681 -13.884114 -0.428241 -14.085550 -54.197165 21.797883 -74.044165 65.295114 -78.842000 30.670518 8.417502 15.245714 0.225236 -0.546152 0.139177
-181.733938 49.136711 12.977673 174.473807 -32.239152 -4.086606 0.224631 20.199926 2.038957 0.048902 2.588350 0.185294 0.076721 4.231538 0.348319 0.498916 17.482389 1.514717 4.201567 14.741344 -3.522889 9.226287 -7.964652 -8.265125 0.329435 -4.270515 -2.352666 5.941875 -10.480742 -14.354702 -38.137037 -47.250189 87.787236 5.682455 7.939864 -10.180948 -0.959296 -2.902261 2.910972 -6.370505 -5.145941 13.331138 71.183256 -68.939803 -108.251289 2.516931 9.678834 5.275179 -7.077743 -51.780006 -3.799705 -163.399728 82.233215 -150.014327 -30.096659 -4.040692 -3.936717 -0.162466 -13.855539 -0.413005 -14.022491 -54.222717 21.725040 -73.895428 65.283540 -78.751798 30.724470 8.452068 15.355790 0.158742 -0.568961 0.120369
-181.739699 49.138569 12.979693 174.500030 -32.248611 -4.087163 0.192868 20.203116 2.047406 0.038029 2.585440 0.208994 0.072947 4.237736 0.331479 0.471654 17.482233 1.523148 4.213121 14.731097 -3.476919 9.219553 -7.978015 -8.171295 0.309136 -4.262198 -2.325487 5.978378 -10.487220 -14.395062 -38.156112 -47.174371 87.749934 5.674633 7.950496 -10.190904 -0.980763 -2.931557 2.897641 -6.391426 -5.161584 13.328255 71.129659 -68.939137 -108.164767 2.528429 9.784236 5.373626 -7.012971 -51.778216 -3.840398 -163.225309 82.213121 -149.838410 -30.108020 -4.043924 -3.929459 -0.161544 -13.833014 -0.381528 -13.990368 -54.216581 21.703450 -73.839685 65.268744 -78.714074 30.729816 8.455318 15.393425 0.151380 -0.559440 0.114587
